<svg id="Layer_1" enable-background="new 0 0 512 512" height="512" viewBox="0 0 512 512" width="512" xmlns="http://www.w3.org/2000/svg"><g><path d="m332.525 285.193s-171.388 32.618-248.713 32.618c-50.024 0-83.212-89.016-83.212-89.016-1.674-2.808.348-6.368 3.617-6.368l344.719.06z" fill="#bfc2d4"/><path d="m283.174 222.475-9.544 73.137c34.515-5.779 58.895-10.419 58.895-10.419l16.411-62.706z" fill="#a9adc7"/><path d="m283.359 332.525s32.618-171.388 32.618-248.713c0-50.024-89.016-83.212-89.016-83.212-2.808-1.674-6.368.348-6.368 3.617l.06 344.719z" fill="#cdd0e0"/><path d="m226.961.601c-2.808-1.674-6.368.348-6.367 3.617l.001 7.597c26.349 13.732 64.477 39.258 64.477 71.998 0 60.842-20.194 199.466-28.803 255.803l27.09-7.09s32.618-171.388 32.618-248.713c0-50.024-89.016-83.212-89.016-83.212z" fill="#bfc2d4"/><path d="m283.362 332.522h-31.596l-35.397-.01c-47.656-.01-86.288 38.632-86.278 86.278l.01 16.586c.01 36.922 26.136 67.755 60.914 75.007 5.069 1.061 10.322 1.617 15.71 1.617 42.341.01 76.666-34.315 76.656-76.656zm-31.617 104.965c0 .082-.011.155-.011.237-1.236 23.787-20.902 42.691-44.998 42.691-12.444 0-23.704-5.048-31.853-13.197-8.159-8.149-13.197-19.419-13.197-31.853l-.01-16.576c0-30.205 24.487-54.692 54.692-54.692l29.226.01c3.42 0 6.181 2.761 6.181 6.181l.01 31.225v2.884l.01 30.957c.002.711-.019 1.422-.05 2.133z" fill="#f0434e"/><g><path d="m283.382 435.344c.01 42.34-34.315 76.666-76.656 76.656-5.388 0-10.642-.556-15.71-1.617-.021-.01-.041-.021-.062-.021 33.996-7.119 59.689-36.788 60.781-72.638 0-.082.011-.155.011-.237.031-.711.051-1.422.051-2.132l-.01-30.957v-2.884l-.01-68.991h31.586z" fill="#de3e48"/></g><path d="m435.375 131.935-16.586-.01c-47.646-.01-86.288 38.621-86.278 86.278l.01 66.993 102.822.021c42.34.01 76.666-34.315 76.656-76.656-.009-42.321-34.314-76.615-76.624-76.626zm-.02 121.696-65.07-.019c-3.412-.001-6.178-2.767-6.179-6.179l-.009-29.23c0-30.205 24.487-54.692 54.692-54.692l16.575.01c12.434.01 23.705 5.048 31.853 13.197 8.149 8.159 13.197 19.409 13.197 31.853.001 24.889-20.17 45.06-45.059 45.06z" fill="#f0434e"/><g><path d="m435.375 131.935-16.586-.01c-2.5-.001-4.968.129-7.413.337 39.072 3.502 69.709 36.308 69.719 76.298.01 42.258-34.184 76.527-76.41 76.65l30.66.006c42.34.01 76.666-34.315 76.656-76.656-.011-42.32-34.316-76.614-76.626-76.625z" fill="#de3e48"/></g><circle cx="257.777" cy="257.691" fill="#ffc107" r="15.453"/></g></svg>